<?xml version="1.0" encoding="utf-8" standalone="no"?>
<!DOCTYPE svg PUBLIC "-//W3C//DTD SVG 1.1//EN"
  "http://www.w3.org/Graphics/SVG/1.1/DTD/svg11.dtd">
<svg xmlns:xlink="http://www.w3.org/1999/xlink" width="288pt" height="194.4pt" viewBox="0 0 288 194.4" xmlns="http://www.w3.org/2000/svg" version="1.1">
 <metadata>
  <rdf:RDF xmlns:dc="http://purl.org/dc/elements/1.1/" xmlns:cc="http://creativecommons.org/ns#" xmlns:rdf="http://www.w3.org/1999/02/22-rdf-syntax-ns#">
   <cc:Work>
    <dc:type rdf:resource="http://purl.org/dc/dcmitype/StillImage"/>
    <dc:format>image/svg+xml</dc:format>
    <dc:creator>
     <cc:Agent>
      <dc:title>Matplotlib v3.10.5, https://matplotlib.org/</dc:title>
     </cc:Agent>
    </dc:creator>
   </cc:Work>
  </rdf:RDF>
 </metadata>
 <defs>
  <style type="text/css">*{stroke-linejoin: round; stroke-linecap: butt}</style>
 </defs>
 <g id="figure_1">
  <g id="patch_1">
   <path d="M 0 194.4 
L 288 194.4 
L 288 0 
L 0 0 
z
" style="fill: #ffffff"/>
  </g>
  <g id="axes_1">
   <g id="patch_2">
    <path d="M 46.08 143.856 
L 276.48 143.856 
L 276.48 23.328 
L 46.08 23.328 
z
" style="fill: #ffffff"/>
   </g>
   <g id="matplotlib.axis_1">
    <g id="xtick_1">
     <g id="line2d_1">
      <defs>
       <path id="m35fe7da7d2" d="M 0 0 
L 0 3.5 
" style="stroke: #000000; stroke-width: 0.8"/>
      </defs>
      <g>
       <use xlink:href="#m35fe7da7d2" x="56.552727" y="143.856" style="stroke: #000000; stroke-width: 0.8"/>
      </g>
     </g>
     <g id="text_1">
      <text style="font-size: 9px; font-family: 'DejaVu Sans'; text-anchor: middle" x="56.552727" y="157.694594" transform="rotate(-0 56.552727 157.694594)">0.0</text>
     </g>
    </g>
    <g id="xtick_2">
     <g id="line2d_2">
      <g>
       <use xlink:href="#m35fe7da7d2" x="98.443636" y="143.856" style="stroke: #000000; stroke-width: 0.8"/>
      </g>
     </g>
     <g id="text_2">
      <text style="font-size: 9px; font-family: 'DejaVu Sans'; text-anchor: middle" x="98.443636" y="157.694594" transform="rotate(-0 98.443636 157.694594)">0.2</text>
     </g>
    </g>
    <g id="xtick_3">
     <g id="line2d_3">
      <g>
       <use xlink:href="#m35fe7da7d2" x="140.334545" y="143.856" style="stroke: #000000; stroke-width: 0.8"/>
      </g>
     </g>
     <g id="text_3">
      <text style="font-size: 9px; font-family: 'DejaVu Sans'; text-anchor: middle" x="140.334545" y="157.694594" transform="rotate(-0 140.334545 157.694594)">0.4</text>
     </g>
    </g>
    <g id="xtick_4">
     <g id="line2d_4">
      <g>
       <use xlink:href="#m35fe7da7d2" x="182.225455" y="143.856" style="stroke: #000000; stroke-width: 0.8"/>
      </g>
     </g>
     <g id="text_4">
      <text style="font-size: 9px; font-family: 'DejaVu Sans'; text-anchor: middle" x="182.225455" y="157.694594" transform="rotate(-0 182.225455 157.694594)">0.6</text>
     </g>
    </g>
    <g id="xtick_5">
     <g id="line2d_5">
      <g>
       <use xlink:href="#m35fe7da7d2" x="224.116364" y="143.856" style="stroke: #000000; stroke-width: 0.8"/>
      </g>
     </g>
     <g id="text_5">
      <text style="font-size: 9px; font-family: 'DejaVu Sans'; text-anchor: middle" x="224.116364" y="157.694594" transform="rotate(-0 224.116364 157.694594)">0.8</text>
     </g>
    </g>
    <g id="xtick_6">
     <g id="line2d_6">
      <g>
       <use xlink:href="#m35fe7da7d2" x="266.007273" y="143.856" style="stroke: #000000; stroke-width: 0.8"/>
      </g>
     </g>
     <g id="text_6">
      <text style="font-size: 9px; font-family: 'DejaVu Sans'; text-anchor: middle" x="266.007273" y="157.694594" transform="rotate(-0 266.007273 157.694594)">1.0</text>
     </g>
    </g>
    <g id="text_7">
     <text style="font-size: 9px; font-family: 'DejaVu Sans'; text-anchor: middle" x="161.28" y="170.404906" transform="rotate(-0 161.28 170.404906)">No-target request fraction π</text>
    </g>
   </g>
   <g id="matplotlib.axis_2">
    <g id="ytick_1">
     <g id="line2d_7">
      <defs>
       <path id="mb62ecd4fc4" d="M 0 0 
L -3.5 0 
" style="stroke: #000000; stroke-width: 0.8"/>
      </defs>
      <g>
       <use xlink:href="#mb62ecd4fc4" x="46.08" y="138.730774" style="stroke: #000000; stroke-width: 0.8"/>
      </g>
     </g>
     <g id="text_8">
      <text style="font-size: 9px; font-family: 'DejaVu Sans'; text-anchor: end" x="39.08" y="142.150071" transform="rotate(-0 39.08 142.150071)">−6</text>
     </g>
    </g>
    <g id="ytick_2">
     <g id="line2d_8">
      <g>
       <use xlink:href="#mb62ecd4fc4" x="46.08" y="104.338822" style="stroke: #000000; stroke-width: 0.8"/>
      </g>
     </g>
     <g id="text_9">
      <text style="font-size: 9px; font-family: 'DejaVu Sans'; text-anchor: end" x="39.08" y="107.758118" transform="rotate(-0 39.08 107.758118)">−4</text>
     </g>
    </g>
    <g id="ytick_3">
     <g id="line2d_9">
      <g>
       <use xlink:href="#mb62ecd4fc4" x="46.08" y="69.946869" style="stroke: #000000; stroke-width: 0.8"/>
      </g>
     </g>
     <g id="text_10">
      <text style="font-size: 9px; font-family: 'DejaVu Sans'; text-anchor: end" x="39.08" y="73.366166" transform="rotate(-0 39.08 73.366166)">−2</text>
     </g>
    </g>
    <g id="ytick_4">
     <g id="line2d_10">
      <g>
       <use xlink:href="#mb62ecd4fc4" x="46.08" y="35.554917" style="stroke: #000000; stroke-width: 0.8"/>
      </g>
     </g>
     <g id="text_11">
      <text style="font-size: 9px; font-family: 'DejaVu Sans'; text-anchor: end" x="39.08" y="38.974214" transform="rotate(-0 39.08 38.974214)">0</text>
     </g>
    </g>
    <g id="text_12">
     <text style="font-size: 9px; font-family: 'DejaVu Sans'; text-anchor: middle" x="19.940313" y="83.592" transform="rotate(-90 19.940313 83.592)">Y − E AUGRC ×100</text>
    </g>
   </g>
   <g id="line2d_11">
    <path d="M 46.08 35.554917 
L 276.48 35.554917 
" clip-path="url(#p75e5b0ac23)" style="fill: none; stroke: #808080; stroke-width: 0.8; stroke-linecap: square"/>
   </g>
   <g id="line2d_12">
    <path d="M 159.027129 143.856 
L 159.027129 23.328 
" clip-path="url(#p75e5b0ac23)" style="fill: none; stroke-dasharray: 1,1.65; stroke-dashoffset: 0; stroke: #999999"/>
   </g>
   <g id="line2d_13">
    <path d="M 56.552727 72.176934 
L 64.930909 67.473595 
L 72.890182 63.255392 
L 80.849455 59.280748 
L 88.808727 55.549663 
L 96.768 52.062137 
L 104.727273 48.81817 
L 112.686545 45.817762 
L 120.645818 43.060913 
L 128.605091 40.547623 
L 136.564364 38.277892 
L 144.104727 36.352289 
L 151.645091 34.645281 
L 159.185455 33.15687 
L 166.725818 31.887054 
L 174.266182 30.835834 
L 181.806545 30.00321 
L 189.346909 29.389182 
L 196.887273 28.99375 
L 204.427636 28.816914 
L 211.968 28.858674 
L 219.508364 29.119029 
L 227.048727 29.597981 
L 234.589091 30.295528 
L 242.129455 31.211671 
L 249.669818 32.346411 
L 257.210182 33.699746 
L 264.750545 35.271677 
L 266.007273 35.554917 
L 266.007273 35.554917 
" clip-path="url(#p75e5b0ac23)" style="fill: none; stroke: #c8742f; stroke-width: 2; stroke-linecap: square"/>
   </g>
   <g id="line2d_14">
    <path d="M 140.633118 35.554917 
L 154.415497 35.554917 
" clip-path="url(#p75e5b0ac23)" style="fill: none; stroke: #c8742f; stroke-opacity: 0.45; stroke-width: 4; stroke-linecap: square"/>
   </g>
   <g id="line2d_15">
    <defs>
     <path id="mc07ff480d3" d="M 0 2 
C 0.530406 2 1.03916 1.789267 1.414214 1.414214 
C 1.789267 1.03916 2 0.530406 2 0 
C 2 -0.530406 1.789267 -1.03916 1.414214 -1.414214 
C 1.03916 -1.789267 0.530406 -2 0 -2 
C -0.530406 -2 -1.03916 -1.789267 -1.414214 -1.414214 
C -1.789267 -1.03916 -2 -0.530406 -2 0 
C -2 0.530406 -1.789267 1.03916 -1.414214 1.414214 
C -1.03916 1.789267 -0.530406 2 0 2 
z
" style="stroke: #c8742f"/>
    </defs>
    <g clip-path="url(#p75e5b0ac23)">
     <use xlink:href="#mc07ff480d3" x="147.507403" y="35.554917" style="fill: #c8742f; stroke: #c8742f"/>
    </g>
   </g>
   <g id="line2d_16">
    <path d="M 56.552727 138.377455 
L 64.093091 130.033057 
L 71.214545 122.470639 
L 78.336 115.217527 
L 85.457455 108.273719 
L 92.578909 101.639216 
L 99.700364 95.314019 
L 106.821818 89.298126 
L 113.524364 83.918658 
L 120.226909 78.813177 
L 126.929455 73.981682 
L 133.632 69.424173 
L 140.334545 65.140651 
L 147.037091 61.131115 
L 153.320727 57.621011 
L 159.604364 54.351715 
L 165.888 51.323228 
L 172.171636 48.535549 
L 178.455273 45.988678 
L 184.738909 43.682616 
L 191.022545 41.617362 
L 197.306182 39.792917 
L 203.589818 38.20928 
L 209.873455 36.866451 
L 216.157091 35.764431 
L 222.440727 34.903219 
L 228.305455 34.316684 
L 234.170182 33.93992 
L 240.034909 33.772927 
L 245.899636 33.815705 
L 251.764364 34.068253 
L 257.629091 34.530573 
L 263.493818 35.202663 
L 266.007273 35.554917 
L 266.007273 35.554917 
" clip-path="url(#p75e5b0ac23)" style="fill: none; stroke: #236b91; stroke-width: 2; stroke-linecap: square"/>
   </g>
   <g id="line2d_17">
    <path d="M 207.476022 35.554917 
L 228.023156 35.554917 
" clip-path="url(#p75e5b0ac23)" style="fill: none; stroke: #236b91; stroke-opacity: 0.45; stroke-width: 4; stroke-linecap: square"/>
   </g>
   <g id="line2d_18">
    <defs>
     <path id="mc8b91e2be9" d="M 0 2 
C 0.530406 2 1.03916 1.789267 1.414214 1.414214 
C 1.789267 1.03916 2 0.530406 2 0 
C 2 -0.530406 1.789267 -1.03916 1.414214 -1.414214 
C 1.03916 -1.789267 0.530406 -2 0 -2 
C -0.530406 -2 -1.03916 -1.789267 -1.414214 -1.414214 
C -1.789267 -1.03916 -2 -0.530406 -2 0 
C -2 0.530406 -1.789267 1.03916 -1.414214 1.414214 
C -1.03916 1.789267 -0.530406 2 0 2 
z
" style="stroke: #236b91"/>
    </defs>
    <g clip-path="url(#p75e5b0ac23)">
     <use xlink:href="#mc8b91e2be9" x="217.535333" y="35.554917" style="fill: #236b91; stroke: #236b91"/>
    </g>
   </g>
   <g id="patch_3">
    <path d="M 46.08 143.856 
L 46.08 23.328 
" style="fill: none; stroke: #000000; stroke-width: 0.8; stroke-linejoin: miter; stroke-linecap: square"/>
   </g>
   <g id="patch_4">
    <path d="M 46.08 143.856 
L 276.48 143.856 
" style="fill: none; stroke: #000000; stroke-width: 0.8; stroke-linejoin: miter; stroke-linecap: square"/>
   </g>
   <g id="text_13">
    <text style="font-weight: 700; font-size: 10px; font-family: 'DejaVu Sans'; text-anchor: middle" x="161.28" y="17.328" transform="rotate(-0 161.28 17.328)">Coverage moves the risk crossover</text>
   </g>
   <g id="legend_1">
    <g id="line2d_19">
     <path d="M 187.561406 113.100844 
L 194.561406 113.100844 
L 201.561406 113.100844 
" style="fill: none; stroke-dasharray: 1,1.65; stroke-dashoffset: 0; stroke: #999999"/>
    </g>
    <g id="text_14">
     <text style="font-size: 7px; font-family: 'DejaVu Sans'; text-anchor: start" x="207.161406" y="115.550844" transform="rotate(-0 207.161406 115.550844)">Observed mixture</text>
    </g>
    <g id="line2d_20">
     <path d="M 187.561406 123.375531 
L 194.561406 123.375531 
L 201.561406 123.375531 
" style="fill: none; stroke: #c8742f; stroke-width: 2; stroke-linecap: square"/>
    </g>
    <g id="text_15">
     <text style="font-size: 7px; font-family: 'DejaVu Sans'; text-anchor: start" x="207.161406" y="125.825531" transform="rotate(-0 207.161406 125.825531)">L1-uniform</text>
    </g>
    <g id="line2d_21">
     <path d="M 187.561406 133.650219 
L 194.561406 133.650219 
L 201.561406 133.650219 
" style="fill: none; stroke: #236b91; stroke-width: 2; stroke-linecap: square"/>
    </g>
    <g id="text_16">
     <text style="font-size: 7px; font-family: 'DejaVu Sans'; text-anchor: start" x="207.161406" y="136.100219" transform="rotate(-0 207.161406 136.100219)">Full-uniform</text>
    </g>
   </g>
  </g>
 </g>
 <defs>
  <clipPath id="p75e5b0ac23">
   <rect x="46.08" y="23.328" width="230.4" height="120.528"/>
  </clipPath>
 </defs>
</svg>
